<?xml version="1.0" encoding="UTF-8" standalone="no"?>
<!-- Created with Inkscape (http://www.inkscape.org/) -->

<svg
   width="297mm"
   height="210mm"
   viewBox="0 0 297 210"
   version="1.1"
   id="svg5"
   xml:space="preserve"
   inkscape:version="1.2.2 (b0a8486, 2022-12-01)"
   sodipodi:docname="compelling-data-story.svg"
   xmlns:inkscape="http://www.inkscape.org/namespaces/inkscape"
   xmlns:sodipodi="http://sodipodi.sourceforge.net/DTD/sodipodi-0.dtd"
   xmlns="http://www.w3.org/2000/svg"
   xmlns:svg="http://www.w3.org/2000/svg"><sodipodi:namedview
     id="namedview7"
     pagecolor="#ffffff"
     bordercolor="#000000"
     borderopacity="0.25"
     inkscape:showpageshadow="2"
     inkscape:pageopacity="0.0"
     inkscape:pagecheckerboard="0"
     inkscape:deskcolor="#d1d1d1"
     inkscape:document-units="mm"
     showgrid="false"
     inkscape:zoom="1.1893044"
     inkscape:cx="409.90347"
     inkscape:cy="558.30955"
     inkscape:window-width="2880"
     inkscape:window-height="1726"
     inkscape:window-x="0"
     inkscape:window-y="37"
     inkscape:window-maximized="1"
     inkscape:current-layer="layer1" /><defs
     id="defs2" /><g
     inkscape:label="Layer 1"
     inkscape:groupmode="layer"
     id="layer1"><g
       id="g1292"
       transform="translate(37.952366,-12.864095)"><g
         style="clip-rule:evenodd;fill:#4c4f69;fill-rule:evenodd;stroke:#4c4f69;stroke-linejoin:round;stroke-miterlimit:2"
         id="g359"
         transform="matrix(0.09568657,0,0,0.09568657,11.056529,46.63771)"><g
           id="SVGRepo_bgCarrier-9"
           stroke-width="0" /><g
           id="SVGRepo_tracerCarrier-36"
           stroke-linecap="round"
           stroke-linejoin="round" /><g
           id="SVGRepo_iconCarrier-06"> <defs
   id="defs2797" /> <g
   id="g2661"
   style="display:inline"
   transform="translate(465.226,65.75)"> <g
   id="_07-Flowchart"> <path
   d="m 0,380.5 h -92.191 c -6.398,-20.742 -25.744,-35.859 -48.557,-35.859 h -53.48 v -63.497 l 75.891,-75.894 H 0 Z m -140.748,35.75 h -136.96 c -11.471,0 -20.803,-9.33 -20.803,-20.8 0,-11.474 9.332,-20.809 20.803,-20.809 h 136.96 c 11.472,0 20.804,9.335 20.804,20.809 0,11.47 -9.332,20.8 -20.804,20.8 M -418.453,0.061 h 92.204 c 6.415,20.71 25.748,35.799 48.541,35.799 h 53.48 v 63.507 l -80.283,80.276 c -2.813,2.813 -4.394,6.628 -4.394,10.607 0,3.979 1.58,7.793 4.393,10.606 l 80.284,80.288 v 63.497 h -53.48 c -22.813,0 -42.158,15.117 -48.556,35.859 h -92.189 z m 140.745,-35.811 h 136.96 c 11.472,0 20.804,9.336 20.804,20.811 0,11.468 -9.332,20.799 -20.804,20.799 h -136.96 c -11.471,0 -20.803,-9.331 -20.803,-20.799 0,-11.475 9.332,-20.811 20.803,-20.811 m 68.48,289.467 -63.463,-63.467 63.463,-63.457 63.464,63.457 z M 15,175.25 h -133.338 l -75.89,-75.883 V 35.86 h 53.48 c 28.014,0 50.804,-22.789 50.804,-50.799 0,-28.018 -22.79,-50.811 -50.804,-50.811 h -136.96 c -22.794,0 -42.128,15.093 -48.542,35.811 h -107.203 c -8.284,0 -15,6.714 -15,15 V 395.5 c 0,8.284 6.716,15 15,15 h 107.218 c 6.43,20.687 25.752,35.75 48.527,35.75 h 136.96 c 22.776,0 42.098,-15.063 48.528,-35.75 H 15 c 8.284,0 15,-6.716 15,-15 V 190.25 c 0,-8.284 -6.716,-15 -15,-15"
   id="path2658"
   style="fill-rule:nonzero" /> </g> </g> </g></g><text
         xml:space="preserve"
         style="font-weight:bold;font-size:6.35px;line-height:normal;font-family:Montserrat;-inkscape-font-specification:'Montserrat Bold';text-align:center;text-decoration-color:#000000;text-anchor:middle;fill:#4c4f69;stroke:#4c4f69;stroke-width:0.7;stroke-linecap:square;stroke-linejoin:round;-inkscape-stroke:none;paint-order:fill markers stroke;stop-color:#000000"
         x="35.564938"
         y="103.51907"
         id="text523"><tspan
           sodipodi:role="line"
           id="tspan521"
           style="stroke:none;stroke-width:0.7"
           x="35.564938"
           y="103.51907">Structure</tspan></text></g><g
       id="g1307"
       transform="translate(38.047599,-12.864095)"><g
         style="fill:#000000"
         id="g338"
         transform="matrix(0.09568657,0,0,0.09568657,87.34195,46.63771)"><g
           id="SVGRepo_bgCarrier-1"
           stroke-width="0" /><g
           id="SVGRepo_tracerCarrier-27"
           stroke-linecap="round"
           stroke-linejoin="round" /><g
           id="SVGRepo_iconCarrier-0"> <style
   type="text/css"
   id="style308">  .st0{fill:#4c4f69;}  </style> <g
   id="g320"> <path
   class="st0"
   d="m 328.094,308.469 c -9.953,0 -18.031,8.078 -18.031,18.031 0,9.938 8.078,18.016 18.031,18.016 9.953,0 18.016,-8.078 18.016,-18.016 -0.001,-9.953 -8.063,-18.031 -18.016,-18.031 z"
   id="path310" /> <polygon
   class="st0"
   points="266.203,168.813 256,155.75 245.797,168.813 256,168.813 "
   id="polygon312" /> <path
   class="st0"
   d="m 278.594,156.781 c 7.109,0 12.875,-5.781 12.875,-12.875 v -2.922 c 0,-7.109 -5.766,-12.875 -12.875,-12.875 -7.109,0 -12.875,5.766 -12.875,12.875 v 2.922 c 0,7.094 5.765,12.875 12.875,12.875 z"
   id="path314" /> <path
   class="st0"
   d="m 454.406,249.688 c 31.797,0 57.594,-25.781 57.594,-57.594 0,-31.813 -25.797,-57.594 -57.594,-57.594 -31.813,0 -48,-12.766 -70.406,-31.969 -54.406,-35.219 -57.594,-92.25 -128,-92.25 -70.406,0 -73.594,57.031 -128,92.25 C 105.594,121.734 89.406,134.5 57.594,134.5 25.782,134.5 0,160.281 0,192.094 c 0,31.813 25.781,57.594 57.594,57.594 h 5.844 L 15.703,423.953 69.094,415.937 90.469,472 116.813,440.016 c 34.969,37.891 85.016,61.703 140.531,61.703 54.75,0 104.188,-23.188 139.078,-60.188 l 25.109,30.469 21.375,-56.063 53.391,8.016 -47.734,-174.266 h 5.843 z M 256,86 v 0 c 34.984,0 52.969,28.094 52.969,57.344 0,10.969 -2.391,20 -7.781,25.281 -7.109,6.969 -15.484,6.266 -16.313,7 0,0 0,7.406 0,12.297 v 1.922 c 0,1.641 -1.344,2.969 -2.969,2.969 h -7.109 c -1.625,0 -2.953,-1.328 -2.953,-2.969 v -9.016 c -0.688,-0.391 -1.328,0.078 -1.891,-0.234 0,0.031 0.016,0.063 0.016,0.078 v 9.172 c 0,1.641 -1.328,2.969 -2.969,2.969 h -7.094 c -1.641,0 -2.969,-1.328 -2.969,-2.969 v -9.172 c 0,-0.297 0.063,-0.578 0.141,-0.859 H 256 254.922 c 0.078,0.281 0.141,0.563 0.141,0.859 v 9.172 c 0,1.641 -1.328,2.969 -2.969,2.969 H 245 c -1.641,0 -2.969,-1.328 -2.969,-2.969 v -9.172 c 0,-0.016 0.016,-0.047 0.016,-0.078 -0.563,0.313 -1.203,-0.156 -1.891,0.234 v 9.016 c 0,1.641 -1.328,2.969 -2.953,2.969 h -7.109 c -1.625,0 -2.969,-1.328 -2.969,-2.969 v -1.922 c 0,-4.891 0,-12.297 0,-12.297 -0.828,-0.734 -9.203,-0.031 -16.313,-7 -5.391,-5.281 -7.781,-14.313 -7.781,-25.281 C 203.031,114.094 221.016,86 256,86 Z m 12.984,163.688 -161.938,76.969 c -0.578,-5.313 -0.891,-10.719 -0.891,-16.188 0,-21.625 4.625,-42.156 12.844,-60.781 z m -11.64,211.968 c -70.469,0 -129.641,-48.5 -146.344,-113.828 l 0.531,1.109 27.406,-13.031 c 3.719,16.063 14.891,39.766 48.563,37.313 38.891,-2.828 55.594,-43.656 53.484,-85.797 l 79.391,-37.734 h 75.281 c 8.219,18.625 12.875,39.156 12.875,60.781 0,83.375 -67.828,151.187 -151.187,151.187 z"
   id="path316" /> <path
   class="st0"
   d="m 233.406,156.781 c 7.109,0 12.875,-5.781 12.875,-12.875 v -2.922 c 0,-7.109 -5.766,-12.875 -12.875,-12.875 -7.109,0 -12.875,5.766 -12.875,12.875 v 2.922 c 0,7.094 5.766,12.875 12.875,12.875 z"
   id="path318" /> </g> </g></g><text
         xml:space="preserve"
         style="font-weight:bold;font-size:6.35px;line-height:normal;font-family:Montserrat;-inkscape-font-specification:'Montserrat Bold';text-align:center;text-decoration-color:#000000;text-anchor:middle;fill:#4c4f69;stroke:#4c4f69;stroke-width:0.7;stroke-linecap:square;stroke-linejoin:round;-inkscape-stroke:none;paint-order:fill markers stroke;stop-color:#000000"
         x="111.79326"
         y="103.61433"
         id="text523-6"><tspan
           sodipodi:role="line"
           id="tspan521-1"
           style="stroke:none;stroke-width:0.7"
           x="111.79326"
           y="103.61433">Character</tspan></text></g><g
       id="g1318"
       transform="translate(38.047599,-12.864095)"><g
         style="fill:#4c4f69"
         id="g304"
         transform="matrix(0.09600346,0,0,0.09600346,165.18372,46.637819)"><g
           id="SVGRepo_bgCarrier-6"
           stroke-width="0" /><g
           id="SVGRepo_tracerCarrier-2"
           stroke-linecap="round"
           stroke-linejoin="round" /><g
           id="SVGRepo_iconCarrier-9"> <g
   id="g290"> <g
   id="g288"> <path
   d="m 504.06,443.728 c -8.341,-8.341 -21.845,-8.341 -30.165,0 h -0.021 L 412.946,382.8 c 20.096,-23.915 34.731,-50.389 36.928,-72.768 1.131,-11.733 -7.424,-22.165 -19.157,-23.317 -11.925,-1.195 -22.165,7.445 -23.317,19.157 -0.256,2.773 -1.067,5.803 -2.091,8.917 L 345.661,255.162 473.896,126.927 c 2.325,-2.347 4.096,-5.205 5.141,-8.341 L 509.202,28.09 c 2.56,-7.68 0.555,-16.128 -5.141,-21.845 -5.717,-5.717 -14.187,-7.701 -21.845,-5.141 L 391.719,31.27 c -3.136,1.045 -5.995,2.816 -8.341,5.163 L 255.143,164.646 126.93,36.432 c -2.325,-2.347 -5.184,-4.117 -8.341,-5.163 L 28.092,1.104 C 20.476,-1.456 11.964,0.507 6.268,6.245 0.551,11.962 -1.455,20.41 1.105,28.09 l 30.165,90.496 c 1.045,3.136 2.816,5.995 5.163,8.341 l 128.213,128.213 -59.904,59.925 c -0.917,-2.965 -1.621,-5.824 -1.771,-8.405 -0.704,-11.755 -10.88,-20.693 -22.592,-20.011 -11.776,0.725 -20.693,10.837 -19.989,22.592 1.344,22.251 16.149,49.237 36.864,73.643 l -60.821,60.843 c -8.341,-8.341 -21.845,-8.341 -30.165,0 -8.341,8.32 -8.341,21.824 0,30.165 l 30.165,30.165 c 4.16,4.16 9.621,6.251 15.083,6.251 5.462,0 10.901,-2.091 15.083,-6.251 8.32,-8.341 8.32,-21.845 0,-30.165 l 60.907,-60.928 c 23.915,20.096 50.411,34.709 72.789,36.885 0.725,0.085 1.408,0.107 2.091,0.107 10.859,0 20.139,-8.235 21.205,-19.264 1.152,-11.712 -7.445,-22.165 -19.157,-23.296 -2.773,-0.277 -5.803,-1.067 -8.917,-2.112 l 59.648,-59.627 59.904,59.904 c -2.965,0.917 -5.824,1.621 -8.405,1.771 -11.776,0.704 -20.715,10.816 -20.011,22.592 0.683,11.307 10.091,20.032 21.269,20.032 0.448,0 0.875,0 1.323,-0.043 22.251,-1.344 49.216,-16.149 73.621,-36.864 l 60.843,60.843 c -8.32,8.32 -8.32,21.824 0,30.165 4.181,4.16 9.643,6.251 15.104,6.251 5.44,0 10.901,-2.091 15.083,-6.251 l 30.165,-30.165 c 8.319,-8.34 8.319,-21.844 -10e-4,-30.164 z M 157.927,382.544 c -5.653,-4.587 -11.2,-9.557 -16.448,-14.784 -0.149,-0.149 -0.299,-0.32 -0.448,-0.469 -4.715,-4.736 -9.237,-9.728 -13.419,-14.784 l 67.2,-67.179 30.187,30.165 z M 298.194,207.696 285.33,194.811 409.98,70.16 455.249,55.077 440.145,100.325 315.495,224.998 Z"
   id="path286" /> </g> </g> </g></g><text
         xml:space="preserve"
         style="font-weight:bold;font-size:6.35px;line-height:normal;font-family:Montserrat;-inkscape-font-specification:'Montserrat Bold';text-align:center;text-decoration-color:#000000;text-anchor:middle;fill:#4c4f69;stroke:#4c4f69;stroke-width:0.7;stroke-linecap:square;stroke-linejoin:round;-inkscape-stroke:none;paint-order:fill markers stroke;stop-color:#000000"
         x="189.60641"
         y="103.75722"
         id="text523-5"><tspan
           sodipodi:role="line"
           id="tspan521-5"
           style="stroke:none;stroke-width:0.7"
           x="189.60641"
           y="103.75722">Conflict</tspan></text></g><g
       id="g1333"
       transform="translate(43.714227,-12.864095)"><g
         style="fill:#4c4f69"
         id="g282"
         transform="matrix(1.5309851,0,0,1.5309851,5.2946207,119.27702)"><g
           id="SVGRepo_bgCarrier-5"
           stroke-width="0" /><g
           id="SVGRepo_tracerCarrier-3"
           stroke-linecap="round"
           stroke-linejoin="round" /><g
           id="SVGRepo_iconCarrier-5"> <g
   id="g264"> <path
   d="m 21,10 c 0,0.552 0.448,1 1,1 h 2 c 0.552,0 1,-0.448 1,-1 0,-0.552 -0.448,-1 -1,-1 h -2 c -0.552,0 -1,0.448 -1,1 z"
   id="path252" /> <path
   d="m 10,11 c 0.552,0 1,-0.448 1,-1 C 11,9.448 10.552,9 10,9 H 8 c -0.552,0 -1,0.448 -1,1 0,0.552 0.448,1 1,1 z"
   id="path254" /> <path
   d="m 12,11 c 0,1.084 0.809,2.575 1.5,3.392 v 0.74 l -3.947,1.974 c -0.013,0.007 -0.021,0.019 -0.034,0.026 -0.024,0.013 -0.05,0.021 -0.074,0.036 l -3,2 c -0.296,0.197 -0.465,0.538 -0.443,0.895 0.022,0.355 0.232,0.673 0.551,0.832 L 9,22.118 V 26 c 0,0.379 0.214,0.725 0.553,0.895 l 6,3 c 0.014,0.007 0.031,0.004 0.046,0.011 C 15.727,29.962 15.862,30 16,30 c 0.138,0 0.273,-0.038 0.401,-0.095 0.015,-0.006 0.031,-0.004 0.046,-0.011 l 6,-3 C 22.786,26.725 23,26.379 23,26 v -3.882 l 2.447,-1.224 c 0.319,-0.159 0.529,-0.477 0.551,-0.832 0.022,-0.356 -0.147,-0.697 -0.443,-0.895 l -3,-2 c -0.023,-0.015 -0.049,-0.023 -0.073,-0.036 -0.013,-0.007 -0.021,-0.02 -0.034,-0.027 L 18.5,15.132 v -0.74 C 19.191,13.575 20,12.084 20,11 20,8.79 18.243,7.058 16,7.058 13.757,7.058 12,8.79 12,11 Z m 4,7 c 0.777,0 1.463,-0.364 1.922,-0.921 L 19.764,18 16,19.882 12.236,18 14.078,17.079 C 14.537,17.636 15.223,18 16,18 Z M 15.5,15.5 V 15 h 1 v 0.5 c 0,0.276 -0.224,0.5 -0.5,0.5 -0.276,0 -0.5,-0.224 -0.5,-0.5 z m -5.428,3.654 3.94,1.97 -1.083,0.722 -3.94,-1.97 z M 11,23.118 12.553,23.894 C 12.694,23.965 12.847,24 13,24 c 0.194,0 0.388,-0.057 0.555,-0.168 L 15,22.868 v 4.513 l -4,-2 z m 10,2.264 -4,2 v -4.513 l 1.445,0.964 C 18.612,23.943 18.806,24 19,24 c 0.153,0 0.306,-0.035 0.447,-0.105 L 21,23.118 Z m -1.928,-3.536 -1.083,-0.722 3.94,-1.97 1.083,0.722 z M 16,9.058 c 1.122,0 2,0.853 2,1.942 0,0.433 -0.488,1.437 -0.936,2 H 14.937 C 14.488,12.437 14,11.433 14,11 14,9.911 14.878,9.058 16,9.058 Z"
   id="path256" /> <path
   d="M 17,5 V 3 C 17,2.448 16.552,2 16,2 15.448,2 15,2.448 15,3 v 2 c 0,0.552 0.448,1 1,1 0.552,0 1,-0.448 1,-1 z"
   id="path258" /> <path
   d="m 20.95,4.293 -1.414,1.414 c -0.391,0.391 -0.391,1.023 0,1.414 0.195,0.195 0.451,0.293 0.707,0.293 0.256,0 0.512,-0.098 0.707,-0.293 l 1.414,-1.414 c 0.391,-0.391 0.391,-1.023 0,-1.414 -0.391,-0.391 -1.024,-0.391 -1.414,0 z"
   id="path260" /> <path
   d="m 11.05,4.293 c -0.391,-0.391 -1.023,-0.391 -1.414,0 -0.391,0.391 -0.391,1.023 0,1.414 l 1.414,1.414 c 0.195,0.195 0.451,0.293 0.707,0.293 0.256,0 0.512,-0.098 0.707,-0.293 0.391,-0.391 0.391,-1.023 0,-1.414 z"
   id="path262" /> </g> </g></g><text
         xml:space="preserve"
         style="font-weight:bold;font-size:6.35px;line-height:normal;font-family:Montserrat;-inkscape-font-specification:'Montserrat Bold';text-align:center;text-decoration-color:#000000;text-anchor:middle;fill:#4c4f69;stroke:#4c4f69;stroke-width:0.7;stroke-linecap:square;stroke-linejoin:round;-inkscape-stroke:none;paint-order:fill markers stroke;stop-color:#000000"
         x="29.745932"
         y="181.14734"
         id="text523-4"><tspan
           sodipodi:role="line"
           id="tspan521-7"
           style="stroke:none;stroke-width:0.7"
           x="29.745932"
           y="181.14734">Resolution</tspan></text></g><g
       id="g1348"
       transform="translate(39.313821,-12.864095)"><g
         style="fill:#4c4f69"
         id="g248"
         transform="matrix(0.09568638,0,0,0.09568638,86.075715,119.27697)"><g
           id="SVGRepo_bgCarrier-3"
           stroke-width="0" /><g
           id="SVGRepo_tracerCarrier-6"
           stroke-linecap="round"
           stroke-linejoin="round" /><g
           id="SVGRepo_iconCarrier-7"> <g
   id="g230"> <g
   id="g228"> <g
   id="g226"> <path
   d="m 445.608,150.787 -6.381,-55.668 c -0.619,-5.388 -5.178,-9.452 -10.599,-9.452 H 267.076 l 1.292,-34.553 71.28,-30.642 c 5.413,-2.328 7.914,-8.602 5.588,-14.014 -2.328,-5.413 -8.599,-7.913 -14.014,-5.588 l -77.477,33.307 c -3.784,1.627 -6.293,5.286 -6.446,9.401 l -1.573,42.089 H 83.376 c -5.421,0 -9.979,4.065 -10.599,9.45 l -6.383,55.669 c -0.347,3.021 0.612,6.046 2.637,8.317 2.025,2.269 4.92,3.567 7.961,3.567 h 7.374 l 33.157,339.699 c 0.533,5.465 5.128,9.632 10.617,9.632 h 255.722 c 5.491,0 10.084,-4.167 10.617,-9.632 l 29.507,-302.317 c 0.211,-0.84 0.336,-1.712 0.336,-2.617 0,-0.186 -0.019,-0.367 -0.027,-0.55 l 3.339,-34.215 h 7.374 c 3.041,0 5.938,-1.298 7.961,-3.567 2.025,-2.27 2.984,-5.295 2.639,-8.316 z m -41.761,35.98 h -72.975 c -5.892,0 -10.667,4.776 -10.667,10.667 0,5.89 4.776,10.667 10.667,10.667 h 70.893 l -27.58,282.564 H 137.817 l -2.547,-26.096 h 68.868 c 5.892,0 10.667,-4.777 10.667,-10.667 0,-5.892 -4.776,-10.668 -10.667,-10.668 H 133.187 L 105.801,162.668 h 300.398 z m 14.111,-45.432 H 94.043 88.952 L 92.889,107 h 326.224 l 3.935,34.334 h -5.09 z"
   id="path218" /> <path
   d="m 237.606,443.238 h -0.409 c -5.891,0 -10.667,4.776 -10.667,10.667 0,5.89 4.777,10.667 10.667,10.667 h 0.409 c 5.891,0 10.667,-4.778 10.667,-10.667 0,-5.891 -4.777,-10.667 -10.667,-10.667 z"
   id="path220" /> <path
   d="m 299.693,208.106 h 0.409 c 5.892,0 10.667,-4.778 10.667,-10.667 0,-5.892 -4.776,-10.668 -10.667,-10.668 h -0.409 c -5.892,0 -10.667,4.776 -10.667,10.668 -0.001,5.89 4.774,10.667 10.667,10.667 z"
   id="path222" /> <path
   d="m 267.642,398.667 c 9.241,0 17.852,-2.24 25.607,-6.634 0.097,-0.052 0.194,-0.1 0.289,-0.155 0.028,-0.017 0.059,-0.029 0.085,-0.046 14.543,-8.394 23.975,-23.283 26.56,-41.926 2.448,-17.649 -1.604,-36.724 -11.411,-53.709 -14.565,-25.229 -39.851,-41.533 -64.414,-41.533 -9.39,0 -18.13,2.3 -25.985,6.834 -0.016,0.008 -0.03,0.019 -0.046,0.029 -0.084,0.048 -0.164,0.1 -0.246,0.153 -14.371,8.425 -23.697,23.231 -26.263,41.745 -2.447,17.65 1.605,36.725 11.411,53.71 14.567,25.228 39.85,41.532 64.413,41.532 z M 244.359,276.001 c 17.08,0 35.112,12.115 45.936,30.864 7.445,12.895 10.554,27.139 8.755,40.11 -0.702,5.067 -2.138,9.661 -4.211,13.664 -5.62,-14.089 -16.176,-24.089 -26.491,-33.859 -13.361,-12.655 -27.134,-25.702 -32.627,-49.604 2.737,-0.773 5.62,-1.175 8.638,-1.175 z m -31.409,30.354 c 0.761,-5.482 2.378,-10.405 4.734,-14.628 8.108,24.118 23.295,38.515 35.992,50.544 11.982,11.349 21.07,19.978 23.369,33.661 -2.962,0.923 -6.104,1.401 -9.403,1.401 -17.08,0 -35.11,-12.115 -45.936,-30.865 -7.444,-12.896 -10.554,-27.141 -8.756,-40.113 z"
   id="path224" /> </g> </g> </g> </g></g><text
         xml:space="preserve"
         style="font-weight:bold;font-size:6.35px;line-height:normal;font-family:Montserrat;-inkscape-font-specification:'Montserrat Bold';text-align:center;text-decoration-color:#000000;text-anchor:middle;fill:#4c4f69;stroke:#4c4f69;stroke-width:0.7;stroke-linecap:square;stroke-linejoin:round;-inkscape-stroke:none;paint-order:fill markers stroke;stop-color:#000000"
         x="110.53339"
         y="180.38852"
         id="text523-65"><tspan
           sodipodi:role="line"
           id="tspan521-6"
           style="stroke:none;stroke-width:0.7"
           x="110.53339"
           y="180.38852">Takeaway</tspan></text></g><g
       id="g1363"
       transform="translate(37.774845,-12.864095)"
       inkscape:export-filename="compelling-data-story.png"
       inkscape:export-xdpi="200"
       inkscape:export-ydpi="200"><g
         style="fill:#4c4f69"
         id="g214"
         transform="matrix(0.11664648,0,0,0.11664648,165.45648,119.27702)"><g
           id="SVGRepo_bgCarrier"
           stroke-width="0" /><g
           id="SVGRepo_tracerCarrier"
           stroke-linecap="round"
           stroke-linejoin="round" /><g
           id="SVGRepo_iconCarrier"> <g
   id="g196"> <g
   id="g194"> <g
   id="g192"> <path
   d="m 314.606,357.373 c -10e-4,0 -10e-4,0 0,0 -8.693,0 -17.603,-1.004 -26.636,-2.98 H 46.729 V 65.608 h 261.426 v 129.624 c 6.477,-3.025 12.809,-5.099 18.956,-6.181 0.825,-0.146 1.649,-0.272 2.472,-0.382 V 32.139 C 329.582,14.418 315.164,0 297.441,0 h -240 C 39.719,0 25.301,14.418 25.301,32.139 v 355.722 c 0,17.722 14.418,32.139 32.14,32.139 h 240 c 17.723,0 32.141,-14.417 32.141,-32.139 v -31.519 c -2.211,0.305 -4.438,0.558 -6.681,0.725 -2.73,0.203 -5.521,0.306 -8.295,0.306 z m -137.165,39.571 c -7.544,0 -13.659,-6.115 -13.659,-13.659 0,-7.543 6.115,-13.659 13.659,-13.659 7.544,0 13.659,6.116 13.659,13.659 0.001,7.544 -6.115,13.659 -13.659,13.659 z"
   id="path184" /> <path
   d="m 393.479,269.643 c -4.186,-22.562 -18.546,-43.424 -26.732,-53.854 -11.107,-14.149 -25.206,-19.83 -41.9,-16.89 -11.922,2.1 -24.878,8.59 -38.51,19.293 -9.634,7.563 -16.907,15.135 -20.124,18.657 -8.085,-6.964 -30.66,-30.226 -41.743,-43.343 -5.566,-6.587 -19.921,-20.595 -30.631,-10.925 -11.529,11.206 5.359,29.516 5.798,30.045 l 67.749,82.93 c -0.273,0.369 -0.58,0.688 -0.933,0.961 -6.497,5.104 -25.458,-4.272 -33.11,-9.334 -6.997,-4.625 -18.777,-4.588 -24.723,0.078 -2.381,1.87 -3.698,4.411 -3.714,7.155 -0.02,3.951 2.566,8.036 7.674,12.129 0.056,0.046 0.158,0.138 0.307,0.263 7.55,6.47 28.028,22.58 55.071,32.496 17.335,6.358 34.224,8.979 50.201,7.791 19.817,-1.478 38.287,-8.832 54.888,-21.864 17.808,-13.984 24.682,-32.688 20.432,-55.588 z"
   id="path186" /> <path
   d="m 225.338,127.975 c 3.351,4.39 9.626,5.232 14.017,1.881 4.392,-3.351 5.232,-9.626 1.881,-14.016 -25.26,-33.092 -72.731,-39.463 -105.823,-14.203 -33.091,25.26 -39.463,72.733 -14.203,105.824 3.351,4.391 9.625,5.232 14.016,1.881 4.391,-3.351 5.233,-9.626 1.882,-14.017 -18.569,-24.326 -13.885,-59.222 10.44,-77.791 24.325,-18.568 59.222,-13.885 77.79,10.441 z"
   id="path188" /> <path
   d="m 181.218,161.646 c 4.389,-3.35 10.685,-2.504 14.035,1.883 3.351,4.39 9.626,5.232 14.016,1.881 4.391,-3.351 5.232,-9.626 1.88,-14.016 -10.041,-13.154 -28.913,-15.688 -42.066,-5.646 -13.154,10.041 -15.687,28.912 -5.646,42.067 3.351,4.39 9.626,5.232 14.017,1.881 4.391,-3.351 5.232,-9.627 1.881,-14.017 -3.35,-4.387 -2.505,-10.683 1.883,-14.033 z"
   id="path190" /> </g> </g> </g> </g></g><text
         xml:space="preserve"
         style="font-weight:bold;font-size:6.35px;line-height:normal;font-family:Montserrat;-inkscape-font-specification:'Montserrat Bold';text-align:center;text-decoration-color:#000000;text-anchor:middle;fill:#4c4f69;stroke:#4c4f69;stroke-width:0.7;stroke-linecap:square;stroke-linejoin:round;-inkscape-stroke:none;paint-order:fill markers stroke;stop-color:#000000"
         x="189.66327"
         y="180.53139"
         id="text523-9"><tspan
           sodipodi:role="line"
           id="tspan521-3"
           style="stroke:none;stroke-width:0.7"
           x="189.66327"
           y="180.53139">Interactivity</tspan></text></g></g></svg>
