<?xml version="1.0" encoding="UTF-8" standalone="no"?>
<!-- Created with Inkscape (http://www.inkscape.org/) -->

<svg
   width="210mm"
   height="297mm"
   viewBox="0 0 210 297"
   version="1.1"
   id="svg5"
   xml:space="preserve"
   inkscape:version="1.2.2 (b0a8486, 2022-12-01)"
   sodipodi:docname="geospatial-data-storytelling.svg"
   xmlns:inkscape="http://www.inkscape.org/namespaces/inkscape"
   xmlns:sodipodi="http://sodipodi.sourceforge.net/DTD/sodipodi-0.dtd"
   xmlns="http://www.w3.org/2000/svg"
   xmlns:svg="http://www.w3.org/2000/svg"><sodipodi:namedview
     id="namedview7"
     pagecolor="#ffffff"
     bordercolor="#000000"
     borderopacity="0.25"
     inkscape:showpageshadow="2"
     inkscape:pageopacity="0.0"
     inkscape:pagecheckerboard="0"
     inkscape:deskcolor="#d1d1d1"
     inkscape:document-units="mm"
     showgrid="false"
     inkscape:zoom="1.6819304"
     inkscape:cx="346.62552"
     inkscape:cy="403.10823"
     inkscape:window-width="2880"
     inkscape:window-height="1726"
     inkscape:window-x="0"
     inkscape:window-y="37"
     inkscape:window-maximized="1"
     inkscape:current-layer="layer1" /><defs
     id="defs2"><style
       id="style224">.cls-1{fill:none;stroke:#4c4f69;stroke-miterlimit:10;stroke-width:1.91px;}</style></defs><g
     inkscape:label="Layer 1"
     inkscape:groupmode="layer"
     id="layer1"><g
       id="g1961"
       inkscape:export-filename="geospatial-data-storytelling.png"
       inkscape:export-xdpi="200"
       inkscape:export-ydpi="200"><g
         style="fill:none"
         id="g197"
         transform="matrix(1.4836739,0,0,1.4836739,81.450136,19.367842)"><g
           id="SVGRepo_bgCarrier"
           stroke-width="0" /><g
           id="SVGRepo_tracerCarrier"
           stroke-linecap="round"
           stroke-linejoin="round" /><g
           id="SVGRepo_iconCarrier"><path
             d="M 3,9 H 21 M 3,15 H 21 M 9,9 V 20 M 15,9 v 11 m -8.8,0 h 11.6 c 1.1201,0 1.6802,0 2.108,-0.218 0.3763,-0.1917 0.6823,-0.4977 0.874,-0.874 C 21,18.4802 21,17.9201 21,16.8 V 7.2 C 21,6.0799 21,5.51984 20.782,5.09202 20.5903,4.71569 20.2843,4.40973 19.908,4.21799 19.4802,4 18.9201,4 17.8,4 H 6.2 C 5.0799,4 4.51984,4 4.09202,4.21799 3.71569,4.40973 3.40973,4.71569 3.21799,5.09202 3,5.51984 3,6.07989 3,7.2 v 9.6 c 0,1.1201 0,1.6802 0.21799,2.108 0.19174,0.3763 0.4977,0.6823 0.87403,0.874 C 4.51984,20 5.07989,20 6.2,20 Z"
             stroke="#4c4f69"
             stroke-width="2"
             stroke-linecap="round"
             stroke-linejoin="round"
             id="path184" /></g></g><text
         xml:space="preserve"
         style="font-weight:bold;font-size:4.9389px;line-height:normal;font-family:Montserrat;-inkscape-font-specification:'Montserrat Bold';text-align:center;text-decoration-color:#000000;text-anchor:middle;opacity:1;fill:#4c4f69;stroke-width:0.7;stroke-linecap:square;stroke-linejoin:round;-inkscape-stroke:none;paint-order:fill markers stroke;stop-color:#000000"
         x="99.202362"
         y="58.225739"
         id="text501"><tspan
           sodipodi:role="line"
           id="tspan499"
           style="stroke-width:0.7"
           x="99.202362"
           y="58.225739">Geographic</tspan><tspan
           sodipodi:role="line"
           style="stroke-width:0.7"
           x="99.202362"
           y="64.399361"
           id="tspan503">Data</tspan></text></g><g
       id="g2008"><g
         style="fill:none"
         id="g220"
         transform="matrix(1.4836739,0,0,1.4836739,22.78975,64.061804)"><g
           id="SVGRepo_bgCarrier-3"
           stroke-width="0" /><g
           id="SVGRepo_tracerCarrier-6"
           stroke-linecap="round"
           stroke-linejoin="round" /><g
           id="SVGRepo_iconCarrier-7"><path
             d="M 3,8.70938 C 3,7.23584 3,6.49907 3.39264,6.06935 3.53204,5.91678 3.70147,5.79466 3.89029,5.71066 4.42213,5.47406 5.12109,5.70705 6.51901,6.17302 7.58626,6.52877 8.11989,6.70665 8.6591,6.68823 8.85714,6.68147 9.05401,6.65511 9.24685,6.60952 9.77191,6.48541 10.2399,6.1734 11.176,5.54937 l 1.3823,-0.92159 c 1.1991,-0.79935 1.7986,-1.19902 2.4868,-1.29118 0.6882,-0.09216 1.3717,0.13569 2.7388,0.59139 l 1.1648,0.38825 c 0.99,0.33001 1.485,0.49502 1.7682,0.88785 C 21,5.59692 21,6.11871 21,7.16229 v 8.12841 c 0,1.4735 0,2.2103 -0.3926,2.64 -0.1394,0.1526 -0.3089,0.2747 -0.4977,0.3587 -0.5318,0.2366 -1.2308,0.0036 -2.6287,-0.4624 -1.0673,-0.3557 -1.6009,-0.5336 -2.1401,-0.5152 -0.198,0.0068 -0.3949,0.0331 -0.5877,0.0787 -0.5251,0.1241 -0.9931,0.4361 -1.9292,1.0602 l -1.3823,0.9215 C 10.2426,20.1716 9.64311,20.5713 8.95493,20.6634 8.26674,20.7556 7.58319,20.5277 6.21609,20.072 L 5.05132,19.6838 C 4.06129,19.3538 3.56627,19.1888 3.28314,18.7959 3,18.4031 3,17.8813 3,16.8377 Z"
             stroke="#4c4f69"
             stroke-width="1.5"
             id="path201" /><path
             opacity="0.5"
             d="M 9,6.63867 V 20.5"
             stroke="#4c4f69"
             stroke-width="1.5"
             id="path203" /><path
             opacity="0.5"
             d="M 15,3 V 17"
             stroke="#4c4f69"
             stroke-width="1.5"
             id="path205" /></g></g><text
         xml:space="preserve"
         style="font-weight:bold;font-size:4.9389px;line-height:normal;font-family:Montserrat;-inkscape-font-specification:'Montserrat Bold';text-align:center;text-decoration-color:#000000;text-anchor:middle;fill:#4c4f69;stroke-width:0.7;stroke-linecap:square;stroke-linejoin:round;-inkscape-stroke:none;paint-order:fill markers stroke;stop-color:#000000"
         x="41.087723"
         y="103.81517"
         id="text501-2"><tspan
           sodipodi:role="line"
           style="stroke-width:0.7"
           x="41.087723"
           y="103.81517"
           id="tspan503-6">Locations &amp; </tspan><tspan
           sodipodi:role="line"
           style="stroke-width:0.7"
           x="41.087723"
           y="109.98879"
           id="tspan1951">Maps</tspan></text></g><g
       id="g1974"><g
         style="fill:#000000"
         id="g422"
         transform="matrix(0.06954721,0,0,0.06954721,139.40979,63.416577)"><g
           id="SVGRepo_bgCarrier-1"
           stroke-width="0" /><g
           id="SVGRepo_tracerCarrier-27"
           stroke-linecap="round"
           stroke-linejoin="round" /><g
           id="SVGRepo_iconCarrier-0"><title
             id="title402">trend</title><g
             id="Page-1"
             stroke="none"
             stroke-width="1"
             fill="none"
             fill-rule="evenodd"><g
               id="Combined-Shape"
               fill="#4c4f69"
               transform="translate(64,64)"><path
                 d="M 42.666667,0 42.666,341.333 384,341.33333 V 384 L 42.666,383.999 42.666667,384 H 0 V 0 Z M 365.56305,188.68015 381.10362,216.65318 280.10131,272.76558 164.71467,251.776 85.20274,321.37456 64.130593,297.29211 155.27073,217.54449 274.53867,239.232 Z M 351.35296,42.019625 373.98037,64.647042 251.96075,186.66667 H 135.33867 l -59.190564,69.07932 -24.296212,-20.82532 68.789146,-80.254 h 118.03629 z"
                 id="path404" /></g></g></g></g><text
         xml:space="preserve"
         style="font-weight:bold;font-size:4.9389px;line-height:normal;font-family:Montserrat;-inkscape-font-specification:'Montserrat Bold';text-align:center;text-decoration-color:#000000;text-anchor:middle;fill:#4c4f69;stroke-width:0.7;stroke-linecap:square;stroke-linejoin:round;-inkscape-stroke:none;paint-order:fill markers stroke;stop-color:#000000"
         x="157.90285"
         y="104.16336"
         id="text501-1"><tspan
           sodipodi:role="line"
           style="stroke-width:0.7"
           x="157.90285"
           y="104.16336"
           id="tspan503-5">Temporal </tspan><tspan
           sodipodi:role="line"
           style="stroke-width:0.7"
           x="157.90285"
           y="110.33698"
           id="tspan1949">Trend</tspan></text></g><g
       id="g1996"><g
         style="fill:#4c4f69"
         id="g445"
         transform="matrix(1.4836739,0,0,1.4836739,43.932103,135.56037)"><g
           id="SVGRepo_bgCarrier-9"
           stroke-width="0" /><g
           id="SVGRepo_tracerCarrier-3"
           stroke-linecap="round"
           stroke-linejoin="round" /><g
           id="SVGRepo_iconCarrier-6"><path
             opacity="0.5"
             d="M 6,9.5 A 2.5,2.5 0 1 0 3.5,12 2.503,2.503 0 0 0 6,9.5 Z M 2,10 V 9 A 1,1 0 0 1 3,8 h 1 a 1,1 0 0 1 1,1 v 1 A 1,1 0 0 1 4,11 H 3 A 1,1 0 0 1 2,10 Z M 12.5,9 A 2.5,2.5 0 1 0 15,11.5 2.503,2.503 0 0 0 12.5,9 Z m 1.5,3 a 1,1 0 0 1 -1,1 h -1 a 1,1 0 0 1 -1,-1 v -1 a 1,1 0 0 1 1,-1 h 1 a 1,1 0 0 1 1,1 z M 14,3.5 A 2.5,2.5 0 1 0 11.5,6 2.503,2.503 0 0 0 14,3.5 Z M 10,4 V 3 a 1,1 0 0 1 1,-1 h 1 a 1,1 0 0 1 1,1 V 4 A 1,1 0 0 1 12,5 H 11 A 1,1 0 0 1 10,4 Z M 20.5,5 A 2.5,2.5 0 1 0 22.99,7.5 2.503,2.503 0 0 0 20.5,5 Z M 22,8 A 1,1 0 0 1 21,9 H 20 A 1,1 0 0 1 19,8 V 7 a 1,1 0 0 1 1,-1 h 1 a 1,1 0 0 1 1,1 z M 5.5,16 A 2.5,2.5 0 1 0 8,18.5 2.503,2.503 0 0 0 5.5,16 Z M 7,19 A 1,1 0 0 1 6,20 H 5 A 1,1 0 0 1 4,19 v -1 a 1,1 0 0 1 1,-1 h 1 a 1,1 0 0 1 1,1 z M 17.5,18 A 2.5,2.5 0 1 0 19.99,20.5 2.503,2.503 0 0 0 17.5,18 Z m 1.5,3 a 1,1 0 0 1 -1,1 h -1 a 1,1 0 0 1 -1,-1 v -1 a 1,1 0 0 1 1,-1 h 1 a 1,1 0 0 1 1,1 z"
             id="path426" /><path
             d="m 17.881,21.07 3.2,-13.86 -9.646,-4.286 -8.493,6.37 2.143,9.643 z m -4.69,-9.356 6.583,-3.292 -2.469,10.698 z m 3.369,8.122 -10.02,-1.67 5.845,-5.844 z m -3.652,-9.1 -0.802,-6.42 7.222,3.21 z M 11.916,10.858 4.67,9.248 11.11,4.417 Z M 11.503,11.79 5.79,17.502 4.159,10.16 Z"
             id="path428" /><path
             fill="none"
             d="M 0,0 H 24 V 24 H 0 Z"
             id="path430" /></g></g><text
         xml:space="preserve"
         style="font-weight:bold;font-size:4.9389px;line-height:normal;font-family:Montserrat;-inkscape-font-specification:'Montserrat Bold';text-align:center;text-decoration-color:#000000;text-anchor:middle;fill:#4c4f69;stroke-width:0.7;stroke-linecap:square;stroke-linejoin:round;-inkscape-stroke:none;paint-order:fill markers stroke;stop-color:#000000"
         x="61.610245"
         y="177.22566"
         id="text501-4"><tspan
           sodipodi:role="line"
           style="stroke-width:0.7"
           x="61.610245"
           y="177.22566"
           id="tspan503-65">Spatial </tspan><tspan
           sodipodi:role="line"
           style="stroke-width:0.7"
           x="61.610245"
           y="183.39929"
           id="tspan1947">Relationship</tspan></text></g><g
       id="g1984"><g
         style="fill:#4c4f69"
         id="g398"
         transform="matrix(0.35575799,0,0,0.35575799,118.70619,132.99509)"><g
           id="SVGRepo_bgCarrier-6"
           stroke-width="0" /><g
           id="SVGRepo_tracerCarrier-2"
           stroke-linecap="round"
           stroke-linejoin="round" /><g
           id="SVGRepo_iconCarrier-9"><path
             id="_people-structure01"
             data-name=" people-structure01"
             d="m 486.238,663.487 c -1.3,-0.07 -2.579,-0.338 -3.875,-0.441 -1.5,-0.121 -3.008,-0.141 -4.511,-0.236 -1.3,-0.083 -1.912,-0.6 -1.937,-1.831 a 37.4,37.4 0 0 1 0.194,-7.211 c 0.34,-1.977 0.415,-4 1.322,-5.836 a 14.266,14.266 0 0 1 1.321,-2.348 4.15,4.15 0 0 1 1.6,-1.308 24.811,24.811 0 0 1 3.447,-1.045 0.859,0.859 0 0 1 0.975,0.526 c 1.031,2.057 2.057,4.117 3.126,6.156 0.069,0.135 0.663,0.19 0.706,0.112 a 13.953,13.953 0 0 0 1,-2.16 c 0.246,-0.722 -0.211,-1.345 -0.474,-1.994 -0.288,-0.709 0.025,-1.15 0.8,-1.157 0.7,0 1.4,0.043 2.1,0.1 a 0.68,0.68 0 0 1 0.448,0.929 2.144,2.144 0 0 1 -0.309,0.512 c -1.031,1.061 -0.855,2.141 -0.121,3.275 a 16.98,16.98 0 0 1 0.815,1.6 c 0.826,-0.133 0.955,-0.923 1.334,-1.458 0.753,-1.066 1.426,-2.189 2.168,-3.263 a 8.214,8.214 0 0 1 1.155,-1.374 1.051,1.051 0 0 1 1.394,-0.08 26.957,26.957 0 0 1 3.6,3.172 6.784,6.784 0 0 1 1.471,4.2 c 0.09,3.011 0.055,6.03 0.046,9.045 a 3.771,3.771 0 0 1 -0.25,1.164 1.325,1.325 0 0 1 -1.269,1.078 c -0.5,0.01 -1,0.065 -1.506,0.067 -2.411,0.006 -4.823,0 -7.235,0 0,0.025 0,0.052 0,0.076 -2.513,-0.084 -5.027,-0.132 -7.535,-0.27 z m -60.468,-0.935 a 4.756,4.756 0 0 0 -1.183,-0.205 c -3.3,-0.215 -6.6,-0.532 -9.9,-0.582 -3.017,-0.047 -6,-0.4 -8.984,-0.7 -1.465,-0.147 -1.613,-0.353 -1.7,-1.9 a 33.466,33.466 0 0 1 0.887,-9.238 12.131,12.131 0 0 1 1.627,-3.859 4.7,4.7 0 0 1 2.8,-2.125 c 0.673,-0.19 1.345,-0.394 2.02,-0.581 a 1.135,1.135 0 0 1 1.485,0.625 c 0.895,1.793 1.759,3.6 2.682,5.379 a 5.024,5.024 0 0 0 0.941,1.135 0.559,0.559 0 0 0 0.473,-0.055 24.164,24.164 0 0 0 0.776,-3.191 c 0.059,-0.423 -0.308,-0.914 -0.513,-1.361 -0.448,-0.976 -0.182,-1.477 0.9,-1.534 a 18.577,18.577 0 0 1 2.1,0.053 c 0.33,0.02 0.653,0.612 0.55,0.938 a 1.611,1.611 0 0 1 -0.2,0.56 c -1.407,1.627 -0.683,3.151 0.208,4.668 a 0.549,0.549 0 0 0 0.98,0.018 c 1.005,-1.5 1.974,-3.02 3,-4.5 1.1,-1.6 1.98,-1.768 3.48,-0.608 a 9.47,9.47 0 0 1 3.978,7.111 c 0.1,1.7 0.017,3.409 0.017,5.115 h 0.018 c 0,1.5 0.009,3.01 -0.005,4.513 a 0.707,0.707 0 0 1 -0.764,0.74 c -0.745,0 -1.493,0.033 -2.239,0.033 a 10.9,10.9 0 0 1 -3.435,-0.449 z m 43.1,-18.779 a 13.288,13.288 0 0 1 -1.5,-0.991 20.918,20.918 0 0 0 -4.322,-2.709 5.608,5.608 0 0 1 -1.535,-0.923 11.614,11.614 0 0 0 -3.728,-1.911 3.38,3.38 0 0 0 -3.66,0.428 12.137,12.137 0 0 1 -4.415,1.828 26.126,26.126 0 0 0 -4.792,1.728 29,29 0 0 1 -3.942,1.46 16.921,16.921 0 0 1 -1.757,0.367 c -1.81,0.4 -2.83,-0.742 -3.692,-2 a 2.65,2.65 0 0 1 0.883,-3.422 7.744,7.744 0 0 0 1.5,-0.963 7.16,7.16 0 0 1 2.853,-1.594 q 5.345,-2 10.653,-4.1 a 1.272,1.272 0 0 0 0.685,-0.842 36.152,36.152 0 0 0 -0.259,-12.533 7.3,7.3 0 0 1 0.125,-4.147 2.7,2.7 0 0 1 0.566,-1.034 c 1.385,-1.33 4.635,-0.9 5.593,0.726 a 5.423,5.423 0 0 1 0.76,2.871 c -0.022,2.21 -0.007,4.418 -0.007,6.628 h -0.117 c 0,2.107 -0.008,4.216 0,6.323 0.007,1.275 0.151,1.519 1.434,1.932 a 79.234,79.234 0 0 1 8.347,3.4 20.436,20.436 0 0 1 4.857,3.492 1.788,1.788 0 0 1 0.565,1.02 c 0.363,2.962 -1.759,4.837 -4.251,5.2 a 0.723,0.723 0 0 1 -0.1,0.007 1.644,1.644 0 0 1 -0.744,-0.241 z m 21.92,-0.958 a 4.721,4.721 0 0 1 -3.044,-1.154 10.559,10.559 0 0 1 -2.825,-3.864 15.355,15.355 0 0 1 -0.7,-1.99 1.915,1.915 0 0 0 -1.076,-1.337 c -1.571,-0.8 -1.51,-2.25 -1.256,-3.67 a 2.018,2.018 0 0 1 0.855,-1.178 3.372,3.372 0 0 0 1.493,-2.455 10.54,10.54 0 0 1 2.114,-4.292 4.667,4.667 0 0 1 4.185,-2.145 c 2.755,0.034 4.349,1.173 5.152,3.617 a 8.515,8.515 0 0 1 0.495,2.342 3.4,3.4 0 0 0 1.17,2.6 3.3,3.3 0 0 1 -0.065,4.584 4.212,4.212 0 0 0 -1.58,3.1 9.691,9.691 0 0 1 -1.543,4.208 3.628,3.628 0 0 1 -3.229,1.64 z m 0.855,-17.523 a 5.132,5.132 0 0 0 -0.774,4.293 17.283,17.283 0 0 1 0.536,3.213 c 0,1.056 0.729,2.032 0.721,3.147 a 0.44,0.44 0 0 0 0.15,0.24 c 0.173,-0.076 0.414,-0.134 0.487,-0.275 0.812,-1.589 0.506,-3.319 0.526,-5 v -3.3 a 4.219,4.219 0 0 0 -0.694,-2.263 0.575,0.575 0 0 0 -0.488,-0.294 0.593,0.593 0 0 0 -0.463,0.239 z M 416.2,641.866 a 8.85,8.85 0 0 1 -2.973,-3.736 20.763,20.763 0 0 1 -0.845,-2.258 1.933,1.933 0 0 0 -1.031,-1.371 c -1.595,-0.76 -1.591,-2.217 -1.329,-3.635 a 2.516,2.516 0 0 1 1.052,-1.39 2.708,2.708 0 0 0 1.235,-1.948 10.367,10.367 0 0 1 2.339,-4.832 c 1.067,-1.287 2.383,-2.167 3.893,-1.966 2.846,0.017 4.481,1.145 5.273,3.553 a 9.938,9.938 0 0 1 0.522,2.64 3.165,3.165 0 0 0 1.116,2.313 3.3,3.3 0 0 1 -0.2,4.781 3.756,3.756 0 0 0 -1.332,2.59 12.966,12.966 0 0 1 -1.107,3.738 4.023,4.023 0 0 1 -3.75,2.471 4.969,4.969 0 0 1 -2.863,-0.95 z m 4.154,-13.8 c -0.17,0.465 -0.462,0.886 -0.626,1.351 a 1.019,1.019 0 0 0 0,0.808 c 0.658,0.77 0.342,1.451 -0.028,2.2 a 7.144,7.144 0 0 0 -0.374,1.358 c 1.02,0.6 0.186,1.4 0.238,2.111 a 3.794,3.794 0 0 0 0.2,1.165 4.691,4.691 0 0 0 0.685,0.923 3.58,3.58 0 0 0 0.491,-0.716 4.552,4.552 0 0 0 0.381,-1.425 c 0.063,-2.786 0.116,-5.572 0.077,-8.357 a 6.456,6.456 0 0 0 -0.6,-1.958 c -0.045,-0.125 -0.252,-0.206 -0.4,-0.27 -0.033,-0.014 -0.152,0.119 -0.2,0.2 a 2.567,2.567 0 0 0 -0.588,1.874 c 0.411,0.076 1.043,-0.063 0.746,0.737 z m -0.986,-0.6 c -0.047,0.027 -0.057,0.115 -0.084,0.176 l 0.169,-0.21 a 0.315,0.315 0 0 0 -0.084,0.03 z m 21.01,-22.705 a 34.783,34.783 0 0 1 -0.165,-4.809 28.58,28.58 0 0 1 1.082,-7.412 23.352,23.352 0 0 1 1.332,-3.015 4.4,4.4 0 0 1 2.974,-2.355 c 0.1,-0.025 0.194,-0.058 0.293,-0.078 a 8.24,8.24 0 0 1 2.6,-0.537 c 1.086,0.131 0.828,1.453 1.311,2.176 0.663,1 1.205,2.078 1.8,3.123 0.433,0.759 0.506,1.776 1.513,2.125 0.249,-0.754 0.517,-1.5 0.743,-2.268 a 2.39,2.39 0 0 0 -0.107,-1.756 4.685,4.685 0 0 1 -0.393,-1.418 0.758,0.758 0 0 1 0.627,-0.887 25.927,25.927 0 0 1 2.974,0.136 c 0.327,0.03 0.54,0.661 0.383,0.993 a 1.4,1.4 0 0 0 -0.133,0.268 c -0.189,0.78 -1.244,1.194 -1.042,2.068 a 18.28,18.28 0 0 0 1.044,2.8 0.513,0.513 0 0 0 0.48,0.092 2.655,2.655 0 0 0 0.594,-0.656 c 0.786,-1.164 1.547,-2.346 2.336,-3.509 a 14.2,14.2 0 0 1 1.1,-1.427 1.237,1.237 0 0 1 1.642,-0.2 29.022,29.022 0 0 1 3.555,3.223 6.812,6.812 0 0 1 1.459,4.2 c 0.085,3.01 0.041,6.021 0.017,9.033 0,0.727 -0.353,0.99 -1.193,0.992 -3.013,0.013 -6.025,0.006 -9.037,0.006 v 0.094 c -2.812,0 -5.623,-0.045 -8.434,0.014 -2.6,0.052 -5.2,0.234 -7.807,0.324 q -0.1,0 -0.194,0 c -0.954,-10e-4 -1.268,-0.301 -1.353,-1.344 z m 12.022,-19.67 a 8.943,8.943 0 0 1 -2.959,-3.748 19.679,19.679 0 0 1 -0.838,-2.26 1.953,1.953 0 0 0 -1.054,-1.356 c -1.589,-0.777 -1.567,-2.237 -1.289,-3.65 a 2.481,2.481 0 0 1 1.066,-1.379 2.659,2.659 0 0 0 1.213,-1.96 10.812,10.812 0 0 1 2.168,-4.59 4.673,4.673 0 0 1 4.216,-2.175 c 2.717,0.024 4.323,1.157 5.129,3.584 a 8.641,8.641 0 0 1 0.5,2.342 3.451,3.451 0 0 0 1.142,2.609 3.284,3.284 0 0 1 -0.244,4.772 3.753,3.753 0 0 0 -1.312,2.6 12.746,12.746 0 0 1 -1.119,3.732 4.008,4.008 0 0 1 -3.736,2.442 4.964,4.964 0 0 1 -2.883,-0.963 z m 3.643,-16.586 a 4.853,4.853 0 0 0 -0.8,4.281 c 0.487,2.112 0.666,4.278 1.241,6.365 0.03,0.1 0.262,0.167 0.409,0.2 0.065,0.013 0.2,-0.086 0.227,-0.16 a 5.98,5.98 0 0 0 0.456,-1.4 c 0.118,-1.193 0.145,-2.4 0.21,-3.6 h -0.12 v -3.3 a 4.252,4.252 0 0 0 -0.678,-2.271 0.628,0.628 0 0 0 -0.522,-0.333 0.542,0.542 0 0 0 -0.42,0.213 z"
             transform="translate(-403.954,-563.955)" /></g></g><text
         xml:space="preserve"
         style="font-weight:bold;font-size:4.9389px;line-height:normal;font-family:Montserrat;-inkscape-font-specification:'Montserrat Bold';text-align:center;text-decoration-color:#000000;text-anchor:middle;fill:#4c4f69;stroke-width:0.7;stroke-linecap:square;stroke-linejoin:round;-inkscape-stroke:none;paint-order:fill markers stroke;stop-color:#000000"
         x="136.34834"
         y="177.2059"
         id="text501-6"><tspan
           sodipodi:role="line"
           style="stroke-width:0.7"
           x="136.34834"
           y="177.2059"
           id="tspan503-3">Audience </tspan><tspan
           sodipodi:role="line"
           style="stroke-width:0.7"
           x="136.34834"
           y="183.37953"
           id="tspan1945">Engagement</tspan></text></g><text
       xml:space="preserve"
       style="font-weight:bold;font-size:6.35px;line-height:normal;font-family:Montserrat;-inkscape-font-specification:'Montserrat Bold';text-align:center;text-decoration-color:#000000;text-anchor:middle;fill:#4c4f69;stroke-width:0.7;stroke-linecap:square;stroke-linejoin:round;-inkscape-stroke:none;paint-order:fill markers stroke;stop-color:#000000"
       x="99.397095"
       y="99.357475"
       id="text501-7"><tspan
         sodipodi:role="line"
         style="font-size:6.35px;stroke-width:0.7"
         x="99.397095"
         y="99.357475"
         id="tspan503-52">Geospatial</tspan><tspan
         sodipodi:role="line"
         style="font-size:6.35px;stroke-width:0.7"
         x="99.397095"
         y="107.29498"
         id="tspan2759">Data</tspan><tspan
         sodipodi:role="line"
         style="font-size:6.35px;stroke-width:0.7"
         x="99.397095"
         y="115.23248"
         id="tspan2761">Storytelling</tspan></text><path
       style="opacity:1;fill:#4c4f69;stroke-width:0.7;stroke-linecap:square;stroke-linejoin:round;-inkscape-stroke:none;paint-order:fill markers stroke;stop-color:#000000;stroke:#4c4f69;stroke-opacity:1"
       d="M 99.254221,90.532089 V 68.512824"
       id="path2817" /><path
       style="opacity:1;fill:#4c4f69;stroke:#4c4f69;stroke-width:0.7;stroke-linecap:square;stroke-linejoin:round;stroke-opacity:1;-inkscape-stroke:none;paint-order:fill markers stroke;stop-color:#000000"
       d="m 124.20619,98.897473 15.50597,-4.323747"
       id="path2873" /><path
       style="opacity:1;fill:#4c4f69;stroke:#4c4f69;stroke-width:0.7;stroke-linecap:square;stroke-linejoin:round;stroke-opacity:1;-inkscape-stroke:none;paint-order:fill markers stroke;stop-color:#000000"
       d="M 78.041766,99.928255 57.401311,93.206032"
       id="path2875" /><path
       style="opacity:1;fill:#4c4f69;stroke:#4c4f69;stroke-width:0.7;stroke-linecap:square;stroke-linejoin:round;stroke-opacity:1;-inkscape-stroke:none;paint-order:fill markers stroke;stop-color:#000000"
       d="M 93.107088,119.7002 75.209431,135.56037"
       id="path2877" /><path
       style="opacity:1;fill:#4c4f69;stroke:#4c4f69;stroke-width:0.7;stroke-linecap:square;stroke-linejoin:round;stroke-opacity:1;-inkscape-stroke:none;paint-order:fill markers stroke;stop-color:#000000"
       d="m 107.17976,119.20612 16.59528,13.79276"
       id="path2879" /></g></svg>
