<?xml version="1.0" encoding="UTF-8" standalone="no"?>
<!-- Created with Inkscape (http://www.inkscape.org/) -->

<svg
   width="210mm"
   height="297mm"
   viewBox="0 0 210 297"
   version="1.1"
   id="svg5"
   xml:space="preserve"
   inkscape:version="1.2.2 (b0a8486, 2022-12-01)"
   sodipodi:docname="drawing-differences_groups.svg"
   xmlns:inkscape="http://www.inkscape.org/namespaces/inkscape"
   xmlns:sodipodi="http://sodipodi.sourceforge.net/DTD/sodipodi-0.dtd"
   xmlns="http://www.w3.org/2000/svg"
   xmlns:svg="http://www.w3.org/2000/svg"><sodipodi:namedview
     id="namedview7"
     pagecolor="#ffffff"
     bordercolor="#000000"
     borderopacity="0.25"
     inkscape:showpageshadow="2"
     inkscape:pageopacity="0.0"
     inkscape:pagecheckerboard="0"
     inkscape:deskcolor="#d1d1d1"
     inkscape:document-units="mm"
     showgrid="false"
     inkscape:zoom="1.601506"
     inkscape:cx="295.6592"
     inkscape:cy="522.32085"
     inkscape:window-width="2560"
     inkscape:window-height="1497"
     inkscape:window-x="0"
     inkscape:window-y="50"
     inkscape:window-maximized="1"
     inkscape:current-layer="layer1" /><defs
     id="defs2"><marker
       style="overflow:visible"
       id="RoundedArrow"
       refX="0"
       refY="0"
       orient="auto-start-reverse"
       inkscape:stockid="RoundedArrow"
       markerWidth="6.1347523"
       markerHeight="5.9304948"
       viewBox="0 0 6.1347524 5.9304951"
       inkscape:isstock="true"
       inkscape:collect="always"
       preserveAspectRatio="xMidYMid"><path
         transform="scale(0.7)"
         d="m -0.21114562,-4.1055728 6.42229122,3.21114561 a 1,1 90 0 1 0,1.78885438 L -0.21114562,4.1055728 A 1.236068,1.236068 31.717474 0 1 -2,3 v -6 a 1.236068,1.236068 148.28253 0 1 1.78885438,-1.1055728 z"
         style="fill:context-stroke;fill-rule:evenodd;stroke:none"
         id="path1367" /></marker></defs><g
     inkscape:label="Layer 1"
     inkscape:groupmode="layer"
     id="layer1"><g
       id="g3518"
       transform="translate(0,2.8985937e-4)"
       inkscape:export-filename="drawing-differences_groups.png"
       inkscape:export-xdpi="150"
       inkscape:export-ydpi="150"><g
         style="fill:none"
         id="g2854"
         transform="matrix(2.4143229,0,0,2.4143229,14.060318,111.43966)"><g
           id="SVGRepo_bgCarrier"
           stroke-width="0" /><g
           id="SVGRepo_tracerCarrier"
           stroke-linecap="round"
           stroke-linejoin="round" /><g
           id="SVGRepo_iconCarrier"><path
             d="m 12,10.5 c -0.5523,0 -1,0.4477 -1,1 0,0.5523 0.4477,1 1,1 0.5523,0 1,-0.4477 1,-1 0,-0.5523 -0.4477,-1 -1,-1 z m -2.5,1 C 9.5,10.1193 10.6193,9 12,9 c 1.3807,0 2.5,1.1193 2.5,2.5 0,1.3807 -1.1193,2.5 -2.5,2.5 -1.3807,0 -2.5,-1.1193 -2.5,-2.5 z"
             fill="#1e66f5"
             id="path2820" /><path
             d="m 5.5,10.585 c -0.55228,0 -1,0.4477 -1,1 0,0.5522 0.44772,1 1,1 0.55228,0 1,-0.4478 1,-1 0,-0.5523 -0.44772,-1 -1,-1 z m -2.5,1 c 0,-1.3808 1.11929,-2.50004 2.5,-2.50004 1.38071,0 2.5,1.11924 2.5,2.50004 0,1.3807 -1.11929,2.5 -2.5,2.5 -1.38071,0 -2.5,-1.1193 -2.5,-2.5 z"
             fill="#1e66f5"
             id="path2822" /><path
             d="m 8.75,4.99951 c -0.55228,0 -1,0.44772 -1,1 0,0.55229 0.44772,1 1,1 0.55228,0 1,-0.44771 1,-1 0,-0.55228 -0.44772,-1 -1,-1 z m -2.5,1 c 0,-1.38071 1.11929,-2.5 2.5,-2.5 1.3807,0 2.5,1.11929 2.5,2.5 0,1.38071 -1.1193,2.5 -2.5,2.5 -1.38071,0 -2.5,-1.11929 -2.5,-2.5 z"
             fill="#1e66f5"
             id="path2824" /><path
             d="m 15.25,4.99951 c -0.5523,0 -1,0.44772 -1,1 0,0.55229 0.4477,1 1,1 0.5523,0 1,-0.44771 1,-1 0,-0.55228 -0.4477,-1 -1,-1 z m -2.5,1 c 0,-1.38071 1.1193,-2.5 2.5,-2.5 1.3807,0 2.5,1.11929 2.5,2.5 0,1.38071 -1.1193,2.5 -2.5,2.5 -1.3807,0 -2.5,-1.11929 -2.5,-2.5 z"
             fill="#1e66f5"
             id="path2826" /><path
             d="m 18.5,10.585 c -0.5523,0 -1,0.4477 -1,1 0,0.5522 0.4477,1 1,1 0.5523,0 1,-0.4478 1,-1 0,-0.5523 -0.4477,-1 -1,-1 z m -2.5,1 c 0,-1.3808 1.1193,-2.50004 2.5,-2.50004 1.3807,0 2.5,1.11924 2.5,2.50004 0,1.3807 -1.1193,2.5 -2.5,2.5 -1.3807,0 -2.5,-1.1193 -2.5,-2.5 z"
             fill="#1e66f5"
             id="path2828" /><path
             d="M 7.16841,15.5 C 7.06042,15.7273 7,15.9816 7,16.25 L 7.00001,17 H 3 v 0.2434 l 9e-5,0.0023 c 3e-4,0.0068 0.00109,0.0213 0.00305,0.0425 0.00394,0.0425 0.01247,0.11 0.03061,0.1938 0.03674,0.1699 0.10961,0.3919 0.251,0.6097 C 3.53807,18.482 4.09972,19 5.49501,19 c 0.76083,0 1.27487,-0.1529 1.6265,-0.3552 0.09182,0.368 0.2587,0.8341 0.56617,1.3079 0.01462,0.0225 0.02947,0.0449 0.04456,0.0672 C 7.1628,20.3143 6.42929,20.5 5.49501,20.5 3.64529,20.5 2.58443,19.768 2.02651,18.9083 1.76226,18.5011 1.63232,18.0981 1.56766,17.7992 1.5351,17.6487 1.51827,17.5208 1.50954,17.4267 1.50516,17.3794 1.50278,17.3403 1.50149,17.3105 1.50085,17.2956 1.50048,17.283 1.50026,17.2729 L 1.50005,17.2595 1.50001,17.2543 1.5,17.252 V 17.251 16.25 c 0,-0.4142 0.33579,-0.75 0.75,-0.75 z"
             fill="#1e66f5"
             id="path2830" /><path
             d="m 16.2657,20.021 c 0.5677,0.2937 1.2986,0.479 2.2293,0.479 1.8537,0 2.9171,-0.7312 3.4767,-1.5908 0.2651,-0.4072 0.3955,-0.8104 0.4604,-1.1095 0.0327,-0.1507 0.0495,-0.2786 0.0583,-0.3728 0.0044,-0.0473 0.0068,-0.0865 0.0081,-0.1163 6e-4,-0.0149 0.001,-0.0275 0.0012,-0.0377 l 2e-4,-0.0133 10e-5,-0.0053 V 17.252 17.251 16.25 c 0,-0.1989 -0.079,-0.3897 -0.2197,-0.5303 C 22.1397,15.579 21.9489,15.5 21.75,15.5 H 16.8311 C 16.9413,15.7322 17,15.9881 17,16.25 V 17 h 4 v 0.2434 l -10e-5,0.0022 c -3e-4,0.0068 -0.0011,0.0213 -0.003,0.0424 -0.004,0.0424 -0.0125,0.1098 -0.0307,0.1936 -0.0368,0.1696 -0.1099,0.3914 -0.2516,0.6092 C 20.4604,18.4812 19.8963,19 18.495,19 c -0.7559,0 -1.2671,-0.152 -1.6172,-0.3534 -0.0922,0.3683 -0.2597,0.8345 -0.5681,1.3082 -0.0144,0.0222 -0.0291,0.0443 -0.044,0.0662 z"
             fill="#1e66f5"
             id="path2832" /><path
             d="M 8,16.25 C 8,15.8358 8.33579,15.5 8.75,15.5 h 6.5 c 0.1989,0 0.3897,0.079 0.5303,0.2197 C 15.921,15.8603 16,16.0511 16,16.25 v 1.5 c 0,-0.25 -0.0013,0.0215 0,0 v 0.002 0.0023 l -10e-5,0.0053 -2e-4,0.0133 c -2e-4,0.0102 -6e-4,0.0228 -0.0012,0.0377 -0.0013,0.0298 -0.0037,0.069 -0.0081,0.1163 -0.0088,0.0942 -0.0256,0.2221 -0.0583,0.3728 -0.0649,0.2991 -0.1953,0.7023 -0.4604,1.1095 C 14.9121,20.2688 13.8487,21 11.995,21 10.1453,21 9.08443,20.268 8.52651,19.4083 8.26226,19.0011 8.13232,18.5981 8.06766,18.2992 8.0351,18.1487 8.01827,18.0208 8.00954,17.9267 8.00516,17.8794 8.00278,17.8403 8.00149,17.8105 8.00085,17.7956 8.00048,17.783 8.00026,17.7729 L 8.00005,17.7595 8.00001,17.7543 8,17.752 V 17.751 Z M 9.5,17 v 0.7434 l 9e-5,0.0023 c 3e-4,0.0068 0.00108,0.0213 0.00304,0.0425 0.00395,0.0425 0.01248,0.11 0.03062,0.1938 0.03674,0.1699 0.10961,0.3919 0.251,0.6097 C 10.0381,18.982 10.5997,19.5 11.995,19.5 c 1.4013,0 1.9654,-0.5188 2.2196,-0.9092 0.1417,-0.2178 0.2148,-0.4396 0.2516,-0.6092 0.0182,-0.0838 0.0267,-0.1512 0.0307,-0.1936 0.0019,-0.0211 0.0027,-0.0356 0.003,-0.0424 L 14.5,17.7434 V 17 Z"
             fill="#1e66f5"
             id="path2834" /></g></g><text
         xml:space="preserve"
         style="font-size:6.35px;line-height:normal;font-family:Montserrat;-inkscape-font-specification:Montserrat;text-decoration-color:#000000;fill:#000000;fill-opacity:0.48383;stroke-width:0.7;stroke-linecap:square;stroke-linejoin:round;-inkscape-stroke:none;paint-order:fill markers stroke;stop-color:#000000"
         x="29.305483"
         y="110.98691"
         id="text3311"><tspan
           sodipodi:role="line"
           id="tspan3309"
           style="font-style:normal;font-variant:normal;font-weight:bold;font-stretch:normal;font-family:Montserrat;-inkscape-font-specification:'Montserrat Bold';fill:#4c4f69;fill-opacity:1;stroke-width:0.7"
           x="29.305483"
           y="110.98691">Group A</tspan></text></g><g
       id="g3602"><g
         style="fill:none;stroke:#fe640b;stroke-width:0.00024"
         id="g3572"
         transform="matrix(2.4143229,0,0,2.4143229,125.93617,111.43995)"><g
           id="SVGRepo_bgCarrier-2"
           stroke-width="0" /><g
           id="SVGRepo_tracerCarrier-28"
           stroke-linecap="round"
           stroke-linejoin="round" /><g
           id="SVGRepo_iconCarrier-97"><path
             d="m 12,10.5 c -0.5523,0 -1,0.4477 -1,1 0,0.5523 0.4477,1 1,1 0.5523,0 1,-0.4477 1,-1 0,-0.5523 -0.4477,-1 -1,-1 z m -2.5,1 C 9.5,10.1193 10.6193,9 12,9 c 1.3807,0 2.5,1.1193 2.5,2.5 0,1.3807 -1.1193,2.5 -2.5,2.5 -1.3807,0 -2.5,-1.1193 -2.5,-2.5 z"
             fill="#7287fd"
             id="path3538" /><path
             d="m 5.5,10.585 c -0.55228,0 -1,0.4477 -1,1 0,0.5522 0.44772,1 1,1 0.55228,0 1,-0.4478 1,-1 0,-0.5523 -0.44772,-1 -1,-1 z m -2.5,1 c 0,-1.3808 1.11929,-2.50004 2.5,-2.50004 1.38071,0 2.5,1.11924 2.5,2.50004 0,1.3807 -1.11929,2.5 -2.5,2.5 -1.38071,0 -2.5,-1.1193 -2.5,-2.5 z"
             fill="#7287fd"
             id="path3540" /><path
             d="m 8.75,4.99951 c -0.55228,0 -1,0.44772 -1,1 0,0.55229 0.44772,1 1,1 0.55228,0 1,-0.44771 1,-1 0,-0.55228 -0.44772,-1 -1,-1 z m -2.5,1 c 0,-1.38071 1.11929,-2.5 2.5,-2.5 1.3807,0 2.5,1.11929 2.5,2.5 0,1.38071 -1.1193,2.5 -2.5,2.5 -1.38071,0 -2.5,-1.11929 -2.5,-2.5 z"
             fill="#7287fd"
             id="path3542" /><path
             d="m 15.25,4.99951 c -0.5523,0 -1,0.44772 -1,1 0,0.55229 0.4477,1 1,1 0.5523,0 1,-0.44771 1,-1 0,-0.55228 -0.4477,-1 -1,-1 z m -2.5,1 c 0,-1.38071 1.1193,-2.5 2.5,-2.5 1.3807,0 2.5,1.11929 2.5,2.5 0,1.38071 -1.1193,2.5 -2.5,2.5 -1.3807,0 -2.5,-1.11929 -2.5,-2.5 z"
             fill="#7287fd"
             id="path3544" /><path
             d="m 18.5,10.585 c -0.5523,0 -1,0.4477 -1,1 0,0.5522 0.4477,1 1,1 0.5523,0 1,-0.4478 1,-1 0,-0.5523 -0.4477,-1 -1,-1 z m -2.5,1 c 0,-1.3808 1.1193,-2.50004 2.5,-2.50004 1.3807,0 2.5,1.11924 2.5,2.50004 0,1.3807 -1.1193,2.5 -2.5,2.5 -1.3807,0 -2.5,-1.1193 -2.5,-2.5 z"
             fill="#7287fd"
             id="path3546" /><path
             d="M 7.16841,15.5 C 7.06042,15.7273 7,15.9816 7,16.25 L 7.00001,17 H 3 v 0.2434 l 9e-5,0.0023 c 3e-4,0.0068 0.00109,0.0213 0.00305,0.0425 0.00394,0.0425 0.01247,0.11 0.03061,0.1938 0.03674,0.1699 0.10961,0.3919 0.251,0.6097 C 3.53807,18.482 4.09972,19 5.49501,19 c 0.76083,0 1.27487,-0.1529 1.6265,-0.3552 0.09182,0.368 0.2587,0.8341 0.56617,1.3079 0.01462,0.0225 0.02947,0.0449 0.04456,0.0672 C 7.1628,20.3143 6.42929,20.5 5.49501,20.5 3.64529,20.5 2.58443,19.768 2.02651,18.9083 1.76226,18.5011 1.63232,18.0981 1.56766,17.7992 1.5351,17.6487 1.51827,17.5208 1.50954,17.4267 1.50516,17.3794 1.50278,17.3403 1.50149,17.3105 1.50085,17.2956 1.50048,17.283 1.50026,17.2729 L 1.50005,17.2595 1.50001,17.2543 1.5,17.252 V 17.251 16.25 c 0,-0.4142 0.33579,-0.75 0.75,-0.75 z"
             fill="#7287fd"
             id="path3548" /><path
             d="m 16.2657,20.021 c 0.5677,0.2937 1.2986,0.479 2.2293,0.479 1.8537,0 2.9171,-0.7312 3.4767,-1.5908 0.2651,-0.4072 0.3955,-0.8104 0.4604,-1.1095 0.0327,-0.1507 0.0495,-0.2786 0.0583,-0.3728 0.0044,-0.0473 0.0068,-0.0865 0.0081,-0.1163 6e-4,-0.0149 0.001,-0.0275 0.0012,-0.0377 l 2e-4,-0.0133 10e-5,-0.0053 V 17.252 17.251 16.25 c 0,-0.1989 -0.079,-0.3897 -0.2197,-0.5303 C 22.1397,15.579 21.9489,15.5 21.75,15.5 H 16.8311 C 16.9413,15.7322 17,15.9881 17,16.25 V 17 h 4 v 0.2434 l -10e-5,0.0022 c -3e-4,0.0068 -0.0011,0.0213 -0.003,0.0424 -0.004,0.0424 -0.0125,0.1098 -0.0307,0.1936 -0.0368,0.1696 -0.1099,0.3914 -0.2516,0.6092 C 20.4604,18.4812 19.8963,19 18.495,19 c -0.7559,0 -1.2671,-0.152 -1.6172,-0.3534 -0.0922,0.3683 -0.2597,0.8345 -0.5681,1.3082 -0.0144,0.0222 -0.0291,0.0443 -0.044,0.0662 z"
             fill="#7287fd"
             id="path3550" /><path
             d="M 8,16.25 C 8,15.8358 8.33579,15.5 8.75,15.5 h 6.5 c 0.1989,0 0.3897,0.079 0.5303,0.2197 C 15.921,15.8603 16,16.0511 16,16.25 v 1.5 c 0,-0.25 -0.0013,0.0215 0,0 v 0.002 0.0023 l -10e-5,0.0053 -2e-4,0.0133 c -2e-4,0.0102 -6e-4,0.0228 -0.0012,0.0377 -0.0013,0.0298 -0.0037,0.069 -0.0081,0.1163 -0.0088,0.0942 -0.0256,0.2221 -0.0583,0.3728 -0.0649,0.2991 -0.1953,0.7023 -0.4604,1.1095 C 14.9121,20.2688 13.8487,21 11.995,21 10.1453,21 9.08443,20.268 8.52651,19.4083 8.26226,19.0011 8.13232,18.5981 8.06766,18.2992 8.0351,18.1487 8.01827,18.0208 8.00954,17.9267 8.00516,17.8794 8.00278,17.8403 8.00149,17.8105 8.00085,17.7956 8.00048,17.783 8.00026,17.7729 L 8.00005,17.7595 8.00001,17.7543 8,17.752 V 17.751 Z M 9.5,17 v 0.7434 l 9e-5,0.0023 c 3e-4,0.0068 0.00108,0.0213 0.00304,0.0425 0.00395,0.0425 0.01248,0.11 0.03062,0.1938 0.03674,0.1699 0.10961,0.3919 0.251,0.6097 C 10.0381,18.982 10.5997,19.5 11.995,19.5 c 1.4013,0 1.9654,-0.5188 2.2196,-0.9092 0.1417,-0.2178 0.2148,-0.4396 0.2516,-0.6092 0.0182,-0.0838 0.0267,-0.1512 0.0307,-0.1936 0.0019,-0.0211 0.0027,-0.0356 0.003,-0.0424 L 14.5,17.7434 V 17 Z"
             fill="#7287fd"
             id="path3552" /></g></g><text
         xml:space="preserve"
         style="font-size:6.35px;line-height:normal;font-family:Montserrat;-inkscape-font-specification:Montserrat;text-decoration-color:#000000;fill:#000000;fill-opacity:0.48383;stroke-width:0.7;stroke-linecap:square;stroke-linejoin:round;-inkscape-stroke:none;paint-order:fill markers stroke;stop-color:#000000"
         x="141.34326"
         y="110.98691"
         id="text3311-1"><tspan
           sodipodi:role="line"
           id="tspan3309-2"
           style="font-style:normal;font-variant:normal;font-weight:bold;font-stretch:normal;font-family:Montserrat;-inkscape-font-specification:'Montserrat Bold';fill:#4c4f69;fill-opacity:1;stroke-width:0.7"
           x="141.34326"
           y="110.98691">Group B</tspan></text></g><text
       xml:space="preserve"
       style="font-style:normal;font-variant:normal;font-weight:bold;font-stretch:normal;font-size:6.35px;line-height:normal;font-family:Montserrat;-inkscape-font-specification:'Montserrat Bold';text-decoration-color:#000000;fill:#4c4f69;fill-opacity:1;stroke-width:0.7;stroke-linecap:square;stroke-linejoin:round;-inkscape-stroke:none;paint-order:fill markers stroke;stop-color:#000000"
       x="100.48322"
       y="125.39809"
       id="text3606"><tspan
         sodipodi:role="line"
         id="tspan3604"
         style="font-style:italic;font-variant:normal;font-weight:500;font-stretch:normal;font-family:Montserrat;-inkscape-font-specification:'Montserrat Medium Italic';text-align:center;text-anchor:middle;stroke-width:0.7"
         x="100.48322"
         y="125.39809">same?</tspan><tspan
         sodipodi:role="line"
         style="font-style:italic;font-variant:normal;font-weight:500;font-stretch:normal;font-family:Montserrat;-inkscape-font-specification:'Montserrat Medium Italic';text-align:center;text-anchor:middle;stroke-width:0.7"
         x="100.48322"
         y="133.33559"
         id="tspan3608">different?</tspan></text><path
       style="fill:#4c4f69;fill-opacity:1;stroke:#fe640b;stroke-width:0.7;stroke-linecap:square;stroke-linejoin:round;stroke-opacity:1;-inkscape-stroke:none;marker-start:url(#RoundedArrow);marker-end:url(#RoundedArrow);paint-order:fill markers stroke;stop-color:#000000"
       d="m 75.54024,135.48827 50.0193,-0.0392"
       id="path3664"
       sodipodi:nodetypes="cc" /></g></svg>
